Coordinates
version=1
nRows=11
nColumns=40
inDegrees=yes

Units are S.I. units (second, meters, Newtons, ...)
If the header above contains a line with 'inDegrees', this indicates whether rotational values are in degrees (yes) or radians (no).

endheader
time	pelvis_tilt	pelvis_list	pelvis_rotation	pelvis_tx	pelvis_ty	pelvis_tz	hip_flexion_r	hip_adduction_r	hip_rotation_r	knee_angle_r	knee_angle_r_beta	ankle_angle_r	subtalar_angle_r	mtp_angle_r	hip_flexion_l	hip_adduction_l	hip_rotation_l	knee_angle_l	knee_angle_l_beta	ankle_angle_l	subtalar_angle_l	mtp_angle_l	lumbar_extension	lumbar_bending	lumbar_rotation	arm_flex_r	arm_add_r	arm_rot_r	elbow_flex_r	pro_sup_r	wrist_flex_r	wrist_dev_r	arm_flex_l	arm_add_l	arm_rot_l	elbow_flex_l	pro_sup_l	wrist_flex_l	wrist_dev_l
      0.81000000	     -0.42946307	      7.39173329	    -89.79211106	      0.22322200	      0.92062241	      0.50979247	     19.82094246	     -9.31769702	     -9.54088278	     67.11273668	      1.17133823	      3.45459839	      0.00000000	      0.00000000	     19.56711749	      2.74901625	      5.79235252	     15.53469041	      0.27113150	      4.35393006	      0.00000000	      0.00000000	     -4.15885052	     -1.30546624	     -4.13445925	      0.00000000	      0.00000000	      0.00000000	      0.00000000	      0.00000000	      0.00000000	      0.00000000	      0.00000000	      0.00000000	      0.00000000	      0.00000000	      0.00000000	      0.00000000	      0.00000000
      0.82000000	     -0.59787847	      7.81564635	    -89.76583487	      0.22418615	      0.92352613	      0.52466177	     22.42552113	     -9.20177518	     -9.89644539	     66.47421707	      1.16019396	      4.70844659	      0.00000000	      0.00000000	     17.98389309	      2.58403699	      6.02314068	     13.72548345	      0.23955488	      4.38734337	      0.00000000	      0.00000000	     -3.78026372	     -0.98744765	     -4.08855041	      0.00000000	      0.00000000	      0.00000000	      0.00000000	      0.00000000	      0.00000000	      0.00000000	      0.00000000	      0.00000000	      0.00000000	      0.00000000	      0.00000000	      0.00000000	      0.00000000
      0.83000000	     -0.77891706	      8.24570297	    -89.72630383	      0.22494119	      0.92600168	      0.53948112	     24.84997331	     -8.97191075	    -10.22964970	     65.25833809	      1.13897286	      5.85136359	      0.00000000	      0.00000000	     16.43316612	      2.39732005	      6.26442517	     11.93344409	      0.20827789	      4.39210480	      0.00000000	      0.00000000	     -3.41632855	     -0.68638022	     -4.05372504	      0.00000000	      0.00000000	      0.00000000	      0.00000000	      0.00000000	      0.00000000	      0.00000000	      0.00000000	      0.00000000	      0.00000000	      0.00000000	      0.00000000	      0.00000000	      0.00000000
      0.84000000	     -0.98649941	      8.64500549	    -89.67897865	      0.22556992	      0.92804330	      0.55436990	     27.04656589	     -8.61992096	    -10.50392299	     63.50008611	      1.10828558	      6.76962262	     -0.00000000	      0.00000000	     14.87453390	      2.17433932	      6.53026904	     10.20029616	      0.17802875	      4.42885618	     -0.00000000	      0.00000000	     -3.05106241	     -0.37260429	     -4.00045219	      0.00000000	     -0.00000000	      0.00000000	      0.00000000	      0.00000000	      0.00000000	      0.00000000	      0.00000000	      0.00000000	     -0.00000000	      0.00000000	      0.00000000	      0.00000000	     -0.00000000
      0.85000000	     -1.15558284	      9.04569486	    -89.61201355	      0.22601797	      0.92949120	      0.56918962	     29.07706245	     -8.22053369	    -10.71125045	     61.28706064	      1.06966100	      7.42207717	     -0.00000000	      0.00000000	     13.38869631	      1.97622905	      6.64317715	      8.57174126	      0.14960511	      4.58488436	      0.00000000	     -0.00000000	     -2.72250539	     -0.14558894	     -4.02717843	      0.00000000	     -0.00000000	     -0.00000000	      0.00000000	      0.00000000	     -0.00000000	      0.00000000	      0.00000000	      0.00000000	     -0.00000000	      0.00000000	      0.00000000	     -0.00000000	     -0.00000000
      0.86000000	     -1.48362951	      8.81274970	    -89.46809337	      0.22642121	      0.93154470	      0.58494318	     29.97481448	     -7.59389757	    -11.03167723	     58.31617530	      1.01780927	      7.83254261	      0.00000000	      0.00000000	     10.99605640	      1.60455937	      7.10224050	      6.60322701	      0.11524805	      4.42284342	      0.00000000	      0.00000000	     -3.03636023	      0.27962828	     -4.03630900	      0.00000000	      0.00000000	      0.00000000	      0.00000000	      0.00000000	      0.00000000	      0.00000000	      0.00000000	      0.00000000	      0.00000000	      0.00000000	      0.00000000	      0.00000000	      0.00000000
      0.87000000	     -1.69237809	      8.94416638	    -89.26731839	      0.22681535	      0.93223746	      0.60026196	     31.22829496	     -7.07356603	    -11.24146628	     55.13523189	      0.96229133	      8.00022256	      0.00000000	      0.00000000	      9.20274915	      1.36297302	      7.46049161	      4.97772906	      0.08687776	      4.61738288	      0.00000000	      0.00000000	     -2.96947065	      0.53228434	     -4.08465481	      0.00000000	      0.00000000	      0.00000000	      0.00000000	      0.00000000	      0.00000000	      0.00000000	      0.00000000	      0.00000000	      0.00000000	      0.00000000	      0.00000000	      0.00000000	      0.00000000
      0.88000000	     -1.84493494	      9.02809977	    -88.97458678	      0.22724539	      0.93232087	      0.61570661	     32.24761817	     -6.62129636	    -11.45126887	     51.61408397	      0.90083571	      7.99370856	      0.00000000	      0.00000000	      7.39358477	      1.17882447	      7.92382633	      3.42414912	      0.05976268	      4.86592536	      0.00000000	      0.00000000	     -2.94586258	      0.69940652	     -4.24313018	      0.00000000	      0.00000000	      0.00000000	      0.00000000	      0.00000000	      0.00000000	      0.00000000	      0.00000000	      0.00000000	      0.00000000	      0.00000000	      0.00000000	      0.00000000	      0.00000000
      0.89000000	     -1.97259793	      8.91294254	    -88.56309336	      0.22776690	      0.93207117	      0.63142762	     32.82739253	     -6.22177829	    -11.68287117	     47.71942322	      0.83286105	      7.82013221	     -0.00000000	     -0.00000000	      5.38816312	      1.00524860	      8.47792837	      1.92442032	      0.03358747	      5.13095234	      0.00000000	     -0.00000000	     -3.13608456	      0.82695623	     -4.57786478	     -0.00000000	      0.00000000	      0.00000000	      0.00000000	      0.00000000	     -0.00000000	     -0.00000000	     -0.00000000	     -0.00000000	      0.00000000	      0.00000000	      0.00000000	     -0.00000000	     -0.00000000
      0.90000000	     -2.02257654	      8.79638088	    -88.08644134	      0.22831507	      0.93115796	      0.64723653	     33.26153570	     -5.93284932	    -11.92146622	     43.56094739	      0.76028196	      7.48465421	      0.00000000	      0.00000000	      3.43292571	      0.89130109	      9.08120445	      0.53152324	      0.00927683	      5.47324924	      0.00000000	      0.00000000	     -3.31554538	      0.85363223	     -5.00899870	      0.00000000	      0.00000000	      0.00000000	      0.00000000	      0.00000000	      0.00000000	      0.00000000	      0.00000000	      0.00000000	      0.00000000	      0.00000000	      0.00000000	      0.00000000	      0.00000000
      0.91000000	     -1.99538484	      8.76887966	    -87.57709948	      0.22886141	      0.92949545	      0.66302537	     33.67537404	     -5.72868349	    -12.06856918	     39.18742345	      0.68394956	      7.03800928	      0.00000000	      0.00000000	      1.64248502	      0.83817887	      9.76964191	     -0.71740824	     -0.01252114	      5.91636367	      0.00000000	      0.00000000	     -3.39450382	      0.78310426	     -5.42317944	      0.00000000	      0.00000000	      0.00000000	      0.00000000	      0.00000000	      0.00000000	      0.00000000	      0.00000000	      0.00000000	      0.00000000	      0.00000000	      0.00000000	      0.00000000	      0.00000000
